<svg width="10" height="17" viewBox="0 0 10 17" fill="none" xmlns="http://www.w3.org/2000/svg">
<path fill-rule="evenodd" clip-rule="evenodd" d="M0.720072 9.02991C0.579622 8.88928 0.500732 8.69866 0.500732 8.49991C0.500732 8.30116 0.579622 8.11054 0.720072 7.96991L8.22007 0.46991C8.28873 0.396223 8.37153 0.337121 8.46353 0.296129C8.55553 0.255137 8.65485 0.233095 8.75555 0.231318C8.85625 0.229541 8.95628 0.248066 9.04967 0.285787C9.14306 0.323508 9.22789 0.379652 9.29911 0.450871C9.37033 0.52209 9.42647 0.606924 9.4642 0.700312C9.50192 0.7937 9.52044 0.893729 9.51866 0.994432C9.51689 1.09513 9.49485 1.19445 9.45385 1.28645C9.41286 1.37845 9.35376 1.46125 9.28007 1.52991L2.31007 8.49991L9.28007 15.4699C9.35376 15.5386 9.41286 15.6214 9.45385 15.7134C9.49485 15.8054 9.51689 15.9047 9.51866 16.0054C9.52044 16.1061 9.50192 16.2061 9.4642 16.2995C9.42647 16.3929 9.37033 16.4777 9.29911 16.5489C9.22789 16.6202 9.14306 16.6763 9.04967 16.714C8.95628 16.7518 8.85625 16.7703 8.75555 16.7685C8.65485 16.7667 8.55553 16.7447 8.46353 16.7037C8.37153 16.6627 8.28873 16.6036 8.22007 16.5299L0.720072 9.02991Z" fill="white"/>
</svg>
