<svg width="58" height="58" viewBox="0 0 58 58" fill="none" xmlns="http://www.w3.org/2000/svg">
<path fill-rule="evenodd" clip-rule="evenodd" d="M3.625 14.5C3.625 13.0579 4.19788 11.6748 5.21761 10.6551C6.23734 9.63538 7.62039 9.0625 9.0625 9.0625H48.9375C50.3796 9.0625 51.7627 9.63538 52.7824 10.6551C53.8021 11.6748 54.375 13.0579 54.375 14.5V43.5C54.375 44.9421 53.8021 46.3252 52.7824 47.3449C51.7627 48.3646 50.3796 48.9375 48.9375 48.9375H9.0625C7.62039 48.9375 6.23734 48.3646 5.21761 47.3449C4.19788 46.3252 3.625 44.9421 3.625 43.5V14.5ZM7.25 38.8117V43.5C7.25 44.5005 8.062 45.3125 9.0625 45.3125H48.9375C49.4182 45.3125 49.8792 45.1215 50.2191 44.7816C50.559 44.4417 50.75 43.9807 50.75 43.5V38.8117L44.2492 32.3133C43.5695 31.6344 42.6481 31.2531 41.6875 31.2531C40.7269 31.2531 39.8055 31.6344 39.1258 32.3133L36.9992 34.4375L39.3433 36.7817C39.5214 36.9476 39.6642 37.1477 39.7633 37.37C39.8624 37.5924 39.9156 37.8324 39.9199 38.0757C39.9242 38.3191 39.8795 38.5608 39.7883 38.7865C39.6971 39.0122 39.5615 39.2172 39.3893 39.3893C39.2172 39.5615 39.0122 39.6971 38.7865 39.7883C38.5608 39.8795 38.3191 39.9242 38.0757 39.9199C37.8324 39.9156 37.5924 39.8624 37.37 39.7633C37.1477 39.6642 36.9476 39.5214 36.7817 39.3433L24.3117 26.8758C23.632 26.1969 22.7106 25.8156 21.75 25.8156C20.7894 25.8156 19.868 26.1969 19.1883 26.8758L7.25 38.8141V38.8117ZM31.7188 19.9375C31.7188 19.2164 32.0052 18.5249 32.5151 18.0151C33.0249 17.5052 33.7164 17.2188 34.4375 17.2188C35.1586 17.2188 35.8501 17.5052 36.3599 18.0151C36.8698 18.5249 37.1562 19.2164 37.1562 19.9375C37.1562 20.6586 36.8698 21.3501 36.3599 21.8599C35.8501 22.3698 35.1586 22.6562 34.4375 22.6562C33.7164 22.6562 33.0249 22.3698 32.5151 21.8599C32.0052 21.3501 31.7188 20.6586 31.7188 19.9375Z" fill="white"/>
</svg>
