<svg  width='0' height='0' xmlns="http://www.w3.org/2000/svg">
  <!-- social media icons -->
  <symbol viewBox="0 0 512 512" id="logo-x">
    <path fill="currentColor" d="M389.2 48h70.6L305.6 224.2L487 464H345L233.7 318.6L106.5 464H35.8l164.9-188.5L26.8 48h145.6l100.5 132.9zm-24.8 373.8h39.1L151.1 88h-42z" />
  </symbol>

  <!-- tech stack icons -->
  <symbol viewBox="0 0 512 104" id="nextjs">
    <path fill="#fff" d="M429.543.043v16.46h-35.377V103.1h-17.69V16.504h-36.114V.043zm3.977 93.24c1.246 0 2.336.448 3.259 1.346c.936.897 1.402 1.972 1.415 3.224a4.476 4.476 0 0 1-.66 2.327a4.776 4.776 0 0 1-1.714 1.665a4.422 4.422 0 0 1-2.3.626c-1.296 0-2.398-.449-3.32-1.346c-.923-.898-1.38-1.985-1.368-3.272c-.011-1.252.445-2.327 1.368-3.224c.922-.898 2.024-1.346 3.32-1.346M82.916 103.1L17.69 22.028v81.03H0V0h22.111l82.406 102.329l.001-85.825l-.007-16.461h89.18v16.46h-71.484v26.48h57.488v16.461h-57.488V86.64h71.485v16.46zm167.469-43.813L261.978 73.7l-23.755 29.522h-23.215zM238.223.086l29.93 37.17L297.989.2l23.15-.035l-41.396 51.485l41.463 51.493h-23.217L215.074.086zm225.488 58.97h7.838v30.2c-.011 2.775-.612 5.148-1.785 7.145c-1.187 1.995-2.83 3.519-4.938 4.594c-2.098 1.062-4.555 1.606-7.348 1.606c-2.553 0-4.841-.46-6.879-1.358c-2.038-.898-3.655-2.244-4.842-4.016c-1.2-1.771-1.787-3.98-1.787-6.625h7.852c.012 1.157.275 2.16.778 3a5.01 5.01 0 0 0 2.086 1.924c.898.45 1.93.674 3.091.674c1.26 0 2.338-.26 3.213-.792c.874-.52 1.546-1.299 2.014-2.338c.455-1.028.695-2.303.707-3.815zm40.09 11.81c-.19-1.83-1.03-3.26-2.492-4.275c-1.475-1.028-3.38-1.535-5.718-1.535c-1.64 0-3.055.248-4.23.732c-1.174.496-2.085 1.157-2.709 1.996c-.622.838-.934 1.795-.959 2.87c0 .897.216 1.677.635 2.326a5.22 5.22 0 0 0 1.714 1.666a11.5 11.5 0 0 0 2.398 1.145c.886.307 1.774.567 2.66.78l4.087 1.004c1.643.378 3.237.885 4.759 1.535c1.521.638 2.9 1.453 4.11 2.433c1.211.98 2.17 2.161 2.877 3.543c.707 1.382 1.067 3 1.067 4.866c0 2.515-.647 4.724-1.954 6.637c-1.306 1.902-3.188 3.39-5.657 4.465c-2.457 1.063-5.43 1.606-8.929 1.606c-3.38 0-6.328-.52-8.81-1.559c-2.492-1.027-4.434-2.54-5.837-4.524c-1.402-1.984-2.157-4.405-2.265-7.251h7.768c.107 1.488.587 2.728 1.402 3.732c.826.992 1.905 1.724 3.224 2.22c1.33.485 2.816.733 4.458.733c1.714 0 3.224-.26 4.53-.768c1.295-.508 2.313-1.216 3.045-2.138c.743-.91 1.115-1.984 1.127-3.212c-.012-1.122-.349-2.055-.996-2.788c-.659-.732-1.57-1.346-2.733-1.842c-1.173-.496-2.54-.945-4.098-1.334l-4.962-1.252c-3.584-.91-6.424-2.291-8.498-4.146c-2.085-1.854-3.116-4.31-3.116-7.393c0-2.527.695-4.748 2.098-6.65c1.39-1.9 3.296-3.377 5.705-4.428c2.42-1.063 5.154-1.583 8.197-1.583c3.093 0 5.801.52 8.139 1.583c2.336 1.051 4.171 2.515 5.5 4.381c1.331 1.867 2.027 4.004 2.063 6.425z" />
  </symbol>
  <symbol viewBox="0 0 142 41" id='xata'>
			<path xmlns="http://www.w3.org/2000/svg" fill="white" d="M71.8754 13.511C72.462 14.0432 72.8325 14.5129 72.9868 14.9199C73.1721 15.327 73.1721 15.7496 72.9868 16.188C72.8325 16.595 72.4929 17.096 71.968 17.6908L57.287 34.9268C56.7621 35.4903 56.299 35.8661 55.8976 36.0539C55.4962 36.2731 55.0948 36.3045 54.6935 36.1479C54.323 35.9914 53.8753 35.6938 53.3505 35.2556C52.8256 34.7233 52.4705 34.2693 52.2852 33.8936C52.1 33.4866 52.1 33.0639 52.2852 32.6255C52.5014 32.1872 52.8564 31.6862 53.3505 31.1227L68.0315 13.8867C68.8033 13.0413 69.4362 12.5874 69.9303 12.5247C70.4551 12.4621 71.1036 12.7909 71.8754 13.511ZM53.3968 13.511C53.9217 13.0413 54.3693 12.7439 54.7398 12.6186C55.1411 12.4934 55.5272 12.5404 55.8976 12.7596C56.299 12.9474 56.7466 13.3231 57.2407 13.8867L71.9217 31.1227C72.4466 31.6862 72.8016 32.1872 72.9868 32.6255C73.1721 33.0639 73.1876 33.4866 73.0332 33.8936C72.8788 34.2693 72.5083 34.7233 71.9217 35.2556C71.3968 35.7252 70.9337 36.0226 70.5323 36.1479C70.1619 36.3045 69.7758 36.2731 69.3745 36.0539C69.004 35.8661 68.5408 35.4903 67.9852 34.9268L53.3042 17.6908C52.8101 17.1272 52.4705 16.6263 52.2852 16.188C52.1 15.7496 52.1 15.327 52.2852 14.9199C52.4705 14.4816 52.841 14.012 53.3968 13.511ZM94.4526 35.913C93.5569 35.913 92.8932 35.7408 92.4609 35.3964C92.0286 35.0521 91.8125 34.5824 91.8125 33.9875L92.1367 32.4377C91.8897 32.8447 91.4729 33.33 90.8863 33.8936C90.2996 34.4259 89.5278 34.9111 88.5707 35.3495C87.6134 35.7565 86.4557 35.96 85.0972 35.96C83.6461 35.96 82.2722 35.6626 80.9754 35.0676C79.7096 34.4415 78.5826 33.5962 77.5946 32.5316C76.6375 31.4358 75.8656 30.1991 75.279 28.8214C74.7232 27.4125 74.4453 25.9096 74.4453 24.3128C74.4453 22.7787 74.7232 21.3384 75.279 19.9921C75.8656 18.6145 76.6529 17.3934 77.6409 16.3288C78.6289 15.2644 79.7559 14.4347 81.0217 13.8397C82.3185 13.2135 83.6769 12.9004 85.0972 12.9004C86.3631 12.9004 87.4283 13.0727 88.2928 13.417C89.1881 13.7615 89.9446 14.1998 90.5621 14.7321C91.1796 15.233 91.6889 15.7653 92.0904 16.3288L91.8125 14.9668C91.8125 14.2781 92.0286 13.7615 92.4609 13.417C92.8932 13.0413 93.572 12.8535 94.499 12.8535C95.3634 12.8535 95.9807 12.9944 96.3509 13.2762C96.7221 13.5266 96.9531 13.8867 97.0459 14.3563C97.1387 14.7947 97.1851 15.2956 97.1851 15.8592V33.0482C97.1851 33.5805 97.1387 34.0658 97.0459 34.5041C96.9531 34.9425 96.7059 35.2868 96.3045 35.5373C95.9343 35.7879 95.317 35.913 94.4526 35.913ZM85.9308 30.4652C86.9805 30.4652 87.9222 30.1991 88.7559 29.6668C89.5895 29.1345 90.2533 28.4144 90.7473 27.5064C91.2722 26.5671 91.5346 25.5339 91.5346 24.4068C91.5346 23.1857 91.2722 22.1211 90.7473 21.2132C90.2225 20.3052 89.5278 19.6008 88.6633 19.0997C87.8296 18.5674 86.8879 18.3014 85.8382 18.3014C84.6958 18.3014 83.6769 18.5831 82.7815 19.1467C81.8863 19.679 81.1761 20.4148 80.6513 21.354C80.1572 22.2621 79.9102 23.2953 79.9102 24.4537C79.9102 25.5809 80.1726 26.5985 80.6975 27.5064C81.2224 28.4144 81.9326 29.1345 82.8278 29.6668C83.7541 30.1991 84.7885 30.4652 85.9308 30.4652ZM113.086 36.0069C111.573 36.0069 110.275 35.8504 109.195 35.5373C108.115 35.2242 107.234 34.739 106.556 34.0814C105.876 33.4239 105.366 32.5786 105.027 31.5454C104.719 30.4808 104.563 29.2284 104.563 27.7882V7.87522C104.563 7.31167 104.61 6.82634 104.703 6.41933C104.827 6.01233 105.074 5.69923 105.444 5.48004C105.845 5.22959 106.463 5.10431 107.296 5.10431C108.161 5.10431 108.779 5.22959 109.149 5.48004C109.55 5.7305 109.797 6.07497 109.89 6.51324C110.013 6.92035 110.075 7.37431 110.075 7.87522V27.6003C110.075 28.2579 110.121 28.7901 110.214 29.1971C110.337 29.6041 110.508 29.9172 110.723 30.1364C110.97 30.3242 111.279 30.4652 111.649 30.5591C112.051 30.6218 112.53 30.653 113.086 30.653C113.672 30.653 114.166 30.7 114.567 30.7939C115 30.8878 115.324 31.1227 115.54 31.4984C115.756 31.8428 115.865 32.422 115.865 33.236C115.865 34.1128 115.725 34.7546 115.447 35.1617C115.201 35.5373 114.861 35.7722 114.428 35.8661C114.027 35.96 113.58 36.0069 113.086 36.0069ZM102.665 13.3231L107.435 13.3701L113.826 13.1823C114.352 13.1823 114.815 13.2448 115.216 13.3701C115.648 13.464 115.988 13.7145 116.235 14.1216C116.482 14.4972 116.605 15.1234 116.605 16.0001C116.605 16.8142 116.482 17.4247 116.235 17.8318C115.988 18.2388 115.664 18.5049 115.262 18.6301C114.861 18.724 114.398 18.7711 113.872 18.7711L107.667 18.677L102.526 18.724C101.754 18.6927 101.214 18.4735 100.905 18.0665C100.628 17.6282 100.488 16.9237 100.488 15.9532C100.488 15.0452 100.658 14.3877 100.998 13.9806C101.368 13.5423 101.924 13.3231 102.665 13.3231ZM139.046 35.913C138.151 35.913 137.487 35.7408 137.054 35.3964C136.623 35.0521 136.407 34.5824 136.407 33.9875L136.73 32.4377C136.483 32.8447 136.067 33.33 135.48 33.8936C134.894 34.4259 134.121 34.9111 133.165 35.3495C132.208 35.7565 131.05 35.96 129.691 35.96C128.239 35.96 126.866 35.6626 125.57 35.0676C124.304 34.4415 123.176 33.5962 122.189 32.5316C121.231 31.4358 120.46 30.1991 119.873 28.8214C119.317 27.4125 119.039 25.9096 119.039 24.3128C119.039 22.7787 119.317 21.3384 119.873 19.9921C120.46 18.6145 121.246 17.3934 122.235 16.3288C123.222 15.2644 124.349 14.4347 125.615 13.8397C126.912 13.2135 128.271 12.9004 129.691 12.9004C130.957 12.9004 132.022 13.0727 132.886 13.417C133.782 13.7615 134.539 14.1998 135.156 14.7321C135.773 15.233 136.283 15.7653 136.684 16.3288L136.407 14.9668C136.407 14.2781 136.623 13.7615 137.054 13.417C137.487 13.0413 138.166 12.8535 139.093 12.8535C139.957 12.8535 140.574 12.9944 140.945 13.2762C141.316 13.5266 141.547 13.8867 141.64 14.3563C141.732 14.7947 141.779 15.2956 141.779 15.8592V33.0482C141.779 33.5805 141.732 34.0658 141.64 34.5041C141.547 34.9425 141.3 35.2868 140.898 35.5373C140.528 35.7879 139.911 35.913 139.046 35.913ZM130.524 30.4652C131.574 30.4652 132.516 30.1991 133.349 29.6668C134.184 29.1345 134.847 28.4144 135.342 27.5064C135.866 26.5671 136.128 25.5339 136.128 24.4068C136.128 23.1857 135.866 22.1211 135.342 21.2132C134.816 20.3052 134.121 19.6008 133.257 19.0997C132.423 18.5674 131.481 18.3014 130.432 18.3014C129.29 18.3014 128.271 18.5831 127.375 19.1467C126.48 19.679 125.77 20.4148 125.245 21.354C124.75 22.2621 124.504 23.2953 124.504 24.4537C124.504 25.5809 124.767 26.5985 125.291 27.5064C125.816 28.4144 126.526 29.1345 127.421 29.6668C128.347 30.1991 129.382 30.4652 130.524 30.4652ZM40.7969 10.1765C40.7922 14.263 39.1867 18.1801 36.3337 21.0663L36.3334 21.0659L26.2121 31.3048C25.8614 31.6595 25.2917 31.6606 24.9629 31.2846C22.5023 28.4697 21.1349 24.8291 21.1392 21.0466C21.144 16.9601 22.7494 13.0428 25.6025 10.1567L25.6028 10.157L34.8498 0.80264C35.6833 -0.0405778 37.047 -0.0465275 37.7539 0.908124C39.7213 3.56555 40.8008 6.81508 40.7969 10.1765ZM4.5868 21.1287C1.73378 18.2426 0.128293 14.3253 0.123545 10.2389C0.119768 6.8774 1.19927 3.62797 3.16661 0.970548C3.87347 0.0157884 5.23722 0.0218471 6.07078 0.864957L15.3178 10.2194L15.318 10.2192C18.1712 13.1054 19.7766 17.0225 19.7813 21.109C19.7857 24.8915 18.4183 28.5322 15.9575 31.3471C15.6289 31.723 15.0591 31.722 14.7084 31.3673L4.58713 21.1285L4.5868 21.1287ZM35.9528 39.4496C35.2093 40.3755 33.8492 40.3674 33.0175 39.5221L27.3058 33.717C26.9554 33.3608 26.9561 32.7835 27.3074 32.4282L36.7937 22.8316C37.1445 22.4768 37.7164 22.4748 38.0257 22.8672C39.6722 24.9557 40.3196 27.8422 39.8301 31.02C39.3821 33.9289 38.0119 36.8857 35.9528 39.4496ZM7.90311 39.5844C7.0715 40.4297 5.71141 40.4378 4.96786 39.5119C2.90879 36.9482 1.53845 33.9912 1.09049 31.0824C0.601081 27.9045 1.24848 25.0181 2.89487 22.9295C3.20427 22.5371 3.77623 22.5391 4.12697 22.8939L13.6134 32.4905C13.9646 32.8459 13.9653 33.4232 13.6148 33.7793L7.90311 39.5844Z"/>
	</symbol>
  <symbol viewBox="0 0 512 113" id="sentry">
    <path fill="#fff" d="M74.126 5.787a11.958 11.958 0 0 0-20.485 0L36.79 34.645a82.48 82.48 0 0 1 45.452 68.268h-11.83a70.88 70.88 0 0 0-39.588-58.179L15.231 71.698a40.766 40.766 0 0 1 23.635 31.164h-27.17a1.946 1.946 0 0 1-1.587-2.843l7.529-12.803a27.502 27.502 0 0 0-8.604-4.865L1.582 95.154a11.625 11.625 0 0 0 4.328 15.979a11.933 11.933 0 0 0 5.787 1.536h37.206a49.677 49.677 0 0 0-20.485-44.325L34.333 58.1a61.123 61.123 0 0 1 26.375 54.568H92.23a91.877 91.877 0 0 0-42.02-81.43l11.958-20.485a1.972 1.972 0 0 1 2.688-.691c1.357.743 51.956 89.034 52.904 90.059a1.946 1.946 0 0 1-1.742 2.893H103.83c.153 3.26.153 6.513 0 9.757h12.24a11.755 11.755 0 0 0 11.83-11.805a11.499 11.499 0 0 0-1.588-5.839zm244.083 66.628L280.413 23.61h-9.423v65.425h9.551V38.896l38.871 50.138h8.348V23.609h-9.551zm-95.18-12.137h33.877v-8.502h-33.903V32.085h38.23v-8.502h-47.96v65.451h48.447v-8.501h-38.717zm-39.844-8.297c-13.188-3.175-16.875-5.685-16.875-11.779c0-5.48 4.84-9.193 12.06-9.193a30.882 30.882 0 0 1 18.105 6.53l5.12-7.247a36.105 36.105 0 0 0-23.045-7.682c-12.957 0-21.996 7.682-21.996 18.616c0 11.78 7.682 15.85 21.663 19.257c12.445 2.867 16.26 5.53 16.26 11.497c0 5.966-5.121 9.654-13.034 9.654a31.599 31.599 0 0 1-21.253-8.348l-5.762 6.888a40.818 40.818 0 0 0 26.683 9.859c14.032 0 23.046-7.554 23.046-19.231c-.077-9.884-5.916-15.185-20.972-18.82M500.989 23.61l-19.691 30.728l-19.564-30.728h-11.42l25.836 39.56v25.89h9.833V62.864L512 23.609zm-165.496 8.86h21.433v56.59h9.833V32.47h21.433v-8.86h-52.673zm98.176 31.035c9.884-2.74 15.364-9.654 15.364-19.538c0-12.573-9.193-20.485-24.019-20.485h-29.089v65.527h9.73V65.501h16.517l16.593 23.559h11.37L432.21 63.914zm-28.04-6.402V32.264h18.36c9.578 0 15.058 4.532 15.058 12.394c0 7.86-5.864 12.444-14.955 12.444z" />
  </symbol>

  <!-- UI icons -->
    <symbol viewBox="0 0 10 17" id='chevron-left'>
      <path d="M0.720072 9.02991C0.579622 8.88928 0.500732 8.69866 0.500732 8.49991C0.500732 8.30116 0.579622 8.11054 0.720072 7.96991L8.22007 0.46991C8.28873 0.396223 8.37153 0.337121 8.46353 0.296129C8.55553 0.255137 8.65485 0.233095 8.75555 0.231318C8.85625 0.229541 8.95628 0.248066 9.04967 0.285787C9.14306 0.323508 9.22789 0.379652 9.29911 0.450871C9.37033 0.52209 9.42647 0.606924 9.4642 0.700312C9.50192 0.7937 9.52044 0.893729 9.51866 0.994432C9.51689 1.09513 9.49485 1.19445 9.45385 1.28645C9.41286 1.37845 9.35376 1.46125 9.28007 1.52991L2.31007 8.49991L9.28007 15.4699C9.35376 15.5386 9.41286 15.6214 9.45385 15.7134C9.49485 15.8054 9.51689 15.9047 9.51866 16.0054C9.52044 16.1061 9.50192 16.2061 9.4642 16.2995C9.42647 16.3929 9.37033 16.4777 9.29911 16.5489C9.22789 16.6202 9.14306 16.6763 9.04967 16.714C8.95628 16.7518 8.85625 16.7703 8.75555 16.7685C8.65485 16.7667 8.55553 16.7447 8.46353 16.7037C8.37153 16.6627 8.28873 16.6036 8.22007 16.5299L0.720072 9.02991Z" fill="currentColor"/>
    </symbol>
    <symbol viewBox="0 0 58 58" fill="none" id='frame'>
    <path d="M3.625 14.5C3.625 13.0579 4.19788 11.6748 5.21761 10.6551C6.23734 9.63538 7.62039 9.0625 9.0625 9.0625H48.9375C50.3796 9.0625 51.7627 9.63538 52.7824 10.6551C53.8021 11.6748 54.375 13.0579 54.375 14.5V43.5C54.375 44.9421 53.8021 46.3252 52.7824 47.3449C51.7627 48.3646 50.3796 48.9375 48.9375 48.9375H9.0625C7.62039 48.9375 6.23734 48.3646 5.21761 47.3449C4.19788 46.3252 3.625 44.9421 3.625 43.5V14.5ZM7.25 38.8117V43.5C7.25 44.5005 8.062 45.3125 9.0625 45.3125H48.9375C49.4182 45.3125 49.8792 45.1215 50.2191 44.7816C50.559 44.4417 50.75 43.9807 50.75 43.5V38.8117L44.2492 32.3133C43.5695 31.6344 42.6481 31.2531 41.6875 31.2531C40.7269 31.2531 39.8055 31.6344 39.1258 32.3133L36.9992 34.4375L39.3433 36.7817C39.5214 36.9476 39.6642 37.1477 39.7633 37.37C39.8624 37.5924 39.9156 37.8324 39.9199 38.0757C39.9242 38.3191 39.8795 38.5608 39.7883 38.7865C39.6971 39.0122 39.5615 39.2172 39.3893 39.3893C39.2172 39.5615 39.0122 39.6971 38.7865 39.7883C38.5608 39.8795 38.3191 39.9242 38.0757 39.9199C37.8324 39.9156 37.5924 39.8624 37.37 39.7633C37.1477 39.6642 36.9476 39.5214 36.7817 39.3433L24.3117 26.8758C23.632 26.1969 22.7106 25.8156 21.75 25.8156C20.7894 25.8156 19.868 26.1969 19.1883 26.8758L7.25 38.8141V38.8117ZM31.7188 19.9375C31.7188 19.2164 32.0052 18.5249 32.5151 18.0151C33.0249 17.5052 33.7164 17.2188 34.4375 17.2188C35.1586 17.2188 35.8501 17.5052 36.3599 18.0151C36.8698 18.5249 37.1562 19.2164 37.1562 19.9375C37.1562 20.6586 36.8698 21.3501 36.3599 21.8599C35.8501 22.3698 35.1586 22.6562 34.4375 22.6562C33.7164 22.6562 33.0249 22.3698 32.5151 21.8599C32.0052 21.3501 31.7188 20.6586 31.7188 19.9375Z" fill="white"/>
    </symbol>
</svg>