<svg width="500" height="829" viewBox="0 0 500 829" fill="none" xmlns="http://www.w3.org/2000/svg">
<path d="M62.6904 565.751C56.1721 565.751 50.9959 564.601 47.1616 562.301C43.7108 560 41.2185 556.933 39.6848 553.098C38.1511 548.881 37.3842 544.279 37.3842 539.295V189.609C37.3842 184.624 37.9593 180.215 39.1096 176.381C40.6433 172.546 43.3273 169.479 47.1616 167.178C50.9959 164.878 56.3639 163.728 63.2656 163.728L176.568 164.303C204.942 164.303 230.632 169.096 253.637 178.681C277.026 187.883 296.965 201.112 313.452 218.366C329.939 235.62 342.593 256.517 351.411 281.056C360.23 305.596 364.64 332.819 364.64 362.726C364.64 393.784 360.23 421.774 351.411 446.697C342.593 471.62 329.748 492.9 312.877 510.538C296.39 528.176 276.451 541.787 253.062 551.373C229.673 560.959 203.6 565.751 174.843 565.751H62.6904ZM89.1469 513.414H176.568C204.559 513.414 228.715 507.47 249.036 495.584C269.358 483.314 285.078 466.252 296.198 444.397C307.317 422.158 312.877 395.893 312.877 365.602C312.877 334.928 307.317 308.471 296.198 286.233C285.078 263.994 269.166 246.931 248.461 235.045C228.139 222.775 203.983 216.641 175.993 216.641H89.1469V513.414Z" fill="black"/>
<path d="M163.327 698.039C156.809 698.039 151.633 696.888 147.798 694.588C144.347 692.287 141.855 689.22 140.321 685.385C138.788 681.168 138.021 676.567 138.021 671.582V321.896C138.021 316.911 138.596 312.502 139.746 308.668C141.28 304.833 143.964 301.766 147.798 299.466C151.633 297.165 157.001 296.015 163.902 296.015L277.205 296.59C305.579 296.59 331.268 301.383 354.274 310.968C377.663 320.171 397.601 333.399 414.089 350.653C430.576 367.907 443.229 388.804 452.048 413.344C460.867 437.883 465.276 465.106 465.276 495.014C465.276 526.071 460.867 554.061 452.048 578.984C443.229 603.907 430.384 625.187 413.514 642.825C397.026 660.463 377.088 674.074 353.699 683.66C330.31 693.246 304.237 698.039 275.48 698.039H163.327ZM189.784 645.701H277.205C305.195 645.701 329.351 639.758 349.673 627.871C369.995 615.602 385.715 598.539 396.835 576.684C407.954 554.445 413.514 528.18 413.514 497.889C413.514 467.215 407.954 440.759 396.835 418.52C385.715 396.281 369.803 379.218 349.098 367.332C328.776 355.063 304.62 348.928 276.63 348.928H189.784V645.701Z" fill="black"/>
</svg>
